<?xml version="1.0" encoding="UTF-8"?>
<svg width="256px" height="256px" viewBox="0 0 256 256" version="1.1" xmlns="http://www.w3.org/2000/svg" xmlns:xlink="http://www.w3.org/1999/xlink">
    <!-- Generator: Sketch 43.2 (39069) - http://www.bohemiancoding.com/sketch -->
    <title>256 copy 3</title>
    <desc>Created with Sketch.</desc>
    <defs>
        <rect id="path-1" x="0" y="0" width="111" height="151"></rect>
    </defs>
    <g id="Page-1" stroke="none" stroke-width="1" fill="none" fill-rule="evenodd">
        <g id="256-copy-3">
            <g id="Group" transform="translate(0.000000, 68.000000)">
                <rect id="Rectangle-4" fill="#979797" x="13.8993289" y="28.6666667" width="81.2013423" height="57.3333333"></rect>
                <polygon id="Triangle" fill="#D8D8D8" points="54.5 0 109 28.6666667 0 28.6666667"></polygon>
            </g>
            <g id="Group-2" transform="translate(86.000000, 41.000000)">
                <g id="Rectangle-4">
                    <use fill="#979797" fill-rule="evenodd" xlink:href="#path-1"></use>
                    <rect stroke="#FFFFFF" stroke-width="4" x="-2" y="-2" width="115" height="155"></rect>
                </g>
                <rect id="Rectangle-5" fill="#D8D8D8" x="6" y="10" width="28" height="27"></rect>
                <rect id="Rectangle-5" fill="#D8D8D8" x="42" y="10" width="28" height="27"></rect>
                <rect id="Rectangle-5" fill="#D8D8D8" x="78" y="10" width="28" height="27"></rect>
                <rect id="Rectangle-5" fill="#D8D8D8" x="6" y="48" width="28" height="27"></rect>
                <rect id="Rectangle-5" fill="#D8D8D8" x="42" y="48" width="28" height="27"></rect>
                <rect id="Rectangle-5" fill="#D8D8D8" x="78" y="48" width="28" height="27"></rect>
                <rect id="Rectangle-5" fill="#D8D8D8" x="6" y="85" width="28" height="27"></rect>
                <rect id="Rectangle-5" fill="#D8D8D8" x="42" y="85" width="28" height="27"></rect>
                <rect id="Rectangle-5" fill="#D8D8D8" x="78" y="85" width="28" height="27"></rect>
            </g>
            <g id="Group-3" transform="translate(119.000000, 124.000000)">
                <rect id="Rectangle-4" fill="#FFFFFF" x="6" y="44" width="111" height="78"></rect>
                <rect id="Rectangle-4" fill="#979797" x="9" y="44" width="111" height="78"></rect>
                <polygon id="Triangle" fill="#FFFFFF" points="65.5 0 131 44 0 44"></polygon>
                <polygon id="Triangle" fill="#D8D8D8" points="67.5 5 133 44 2 44"></polygon>
            </g>
        </g>
    </g>
</svg>