<?xml version="1.0" encoding="UTF-8"?>
<svg width="58px" height="80px" viewBox="0 0 58 80" version="1.1" xmlns="http://www.w3.org/2000/svg" xmlns:xlink="http://www.w3.org/1999/xlink">
    <!-- Generator: Sketch 55.2 (78181) - https://sketchapp.com -->
    <title>padlock</title>
    <desc>Created with Sketch.</desc>
    <g id="Router---July-2019-Revision-(YM)" stroke="none" stroke-width="1" fill="none" fill-rule="evenodd">
        <g id="Finances" transform="translate(-865.000000, -242.000000)" fill-rule="nonzero">
            <g id="padlock" transform="translate(865.000000, 242.000000)">
                <path d="M14.7099397,14.1101075 L14.7099397,31.449585 L22.1643384,31.449585 L22.1643384,14.1101075 C22.1643384,10.39917 25.1989215,7.39074703 28.942128,7.39074703 C32.6853345,7.39074703 35.7199177,10.39917 35.7199177,14.1101075 L35.7199177,31.449585 L43.1743164,31.449585 L43.1743164,14.1101075 C43.1743164,6.31774906 36.8022461,0.000610351562 28.942128,0.000610351562 C21.0813943,0.000610351562 14.7099397,6.31774906 14.7099397,14.1101075 Z" id="Path" fill="#838383"></path>
                <path d="M43.1737008,14.1107178 L43.1737008,31.449585 L39.7266262,31.449585 L39.7266262,14.1107178 C39.7266262,6.89636234 34.2651155,0.946655313 27.2182829,0.104370156 C27.7828423,0.0354003125 28.3584834,0 28.942128,0 C36.8028617,0 43.1737008,6.31713875 43.1737008,14.1107178 Z" id="Path" fill="#5A5A5A"></path>
                <path d="M52.6031334,79.9993897 L5.28112254,79.9993897 C2.36474605,79.9993897 0,77.6550294 0,74.7637939 L0,33.4558106 C0,30.5639648 2.36474605,28.2202148 5.28112254,28.2202148 L52.6031334,28.2202148 C55.5195101,28.2202148 57.8842561,30.5639648 57.8842561,33.4558106 L57.8842561,74.7637939 C57.8842561,77.6550294 55.5195101,79.9993897 52.6031334,79.9993897 Z" id="Path" fill="#FFD86E"></path>
                <path d="M57.8836405,33.4552002 L57.8836405,74.7644044 C57.8836405,77.6550294 55.5195101,80 52.6025178,80 L47.4543776,80 C50.3713697,80 52.7355001,77.6550294 52.7355001,74.7644044 L52.7355001,33.4552002 C52.7355001,30.5645752 50.3713697,28.2196045 47.4543776,28.2196045 L52.6025178,28.2196045 C55.5195101,28.2196045 57.8836405,30.5645752 57.8836405,33.4552002 Z" id="Path" fill="#FFB509"></path>
                <path d="M57.8842561,42.4932861 L0,42.4932861 L0,33.4558106 C0,30.5639648 2.36474605,28.2202148 5.28112254,28.2202148 L52.6031334,28.2202148 C55.5195101,28.2202148 57.8842561,30.5639648 57.8842561,33.4558106 L57.8842561,42.4932861 Z" id="Path" fill="#80E0DC"></path>
                <path d="M57.8836405,33.4552002 L57.8836405,42.4926758 L52.7355001,42.4926758 L52.7355001,33.4552002 C52.7355001,30.5645752 50.3713697,28.2196045 47.4543776,28.2196045 L52.6025178,28.2196045 C55.5195101,28.2196045 57.8836405,30.5645752 57.8836405,33.4552002 Z" id="Path" fill="#00A8B0"></path>
                <path d="M33.9800653,56.2316894 C33.9800653,53.2855225 31.4078423,50.9350586 28.368334,51.2683106 C26.006666,51.5270997 24.1806216,53.3496094 23.932511,55.6915283 C23.7391942,57.512207 24.5346255,59.1601563 25.8515201,60.1751709 C26.254161,60.4858398 26.4813391,60.9692383 26.4813391,61.4752197 L26.4813391,64.3634033 C26.4813391,65.7104492 27.582753,66.8023681 28.942128,66.8023681 C30.3008874,66.8023681 31.4023014,65.7104492 31.4023014,64.3634033 L31.4023014,61.4746094 C31.4023014,60.9619141 31.6417927,60.4791259 32.0493588,60.1623534 C33.2246519,59.2480469 33.9800653,57.8277588 33.9800653,56.2316894 Z" id="Path" fill="#838383"></path>
                <path d="M33.9800653,56.2316894 C33.9800653,57.8277588 33.2246519,59.2486572 32.0487432,60.1617431 C31.6417927,60.4785156 31.4035326,60.9625244 31.4035326,61.4752197 L31.4035326,64.3621827 C31.4035326,65.0372314 31.1277174,65.6463623 30.6819803,66.0888672 C30.2362432,66.5289306 29.6218155,66.8023681 28.942128,66.8023681 C28.2464334,66.8023681 27.6190769,66.5161133 27.1714929,66.0565186 C27.5673615,65.9405517 27.9219811,65.7269288 28.2058,65.4455566 C28.6521527,65.0036622 28.9273522,64.3945313 28.9273522,63.7194825 L28.9273522,60.8319092 C28.9273522,60.3192139 29.1674592,59.8358155 29.5744098,59.519043 C30.7503185,58.605957 31.5057321,57.1850586 31.5057321,55.5883789 C31.5057321,53.7225342 30.471425,52.0922852 28.9402811,51.2353516 C31.7242909,51.2353516 33.9800653,53.4716797 33.9800653,56.2316894 Z" id="Path" fill="#5A5A5A"></path>
                <g id="Group" transform="translate(14.500000, 32.343750)" fill="#FFD86E">
                    <path d="M5.9651197,3.01269531 C5.9651197,4.63439938 4.63899036,5.94909672 3.00318452,5.94909672 C1.36737853,5.94909672 0.0412491902,4.63439938 0.0412491902,3.01269531 C0.0412491902,1.39099125 1.36737853,0.0762939063 3.00318452,0.0762939063 C4.63899036,0.0762939063 5.9651197,1.39099125 5.9651197,3.01269531 Z" id="Path"></path>
                    <path d="M17.4040633,3.01269531 C17.4040633,4.63439938 16.077934,5.94909672 14.442128,5.94909672 C12.8063221,5.94909672 11.4801928,4.63439938 11.4801928,3.01269531 C11.4801928,1.39099125 12.8063221,0.0762939063 14.442128,0.0762939063 C16.077934,0.0762939063 17.4040633,1.39099125 17.4040633,3.01269531 Z" id="Path"></path>
                    <path d="M28.8430069,3.01269531 C28.8430069,4.63439938 27.5168776,5.94909672 25.8810718,5.94909672 C24.2452658,5.94909672 22.9191364,4.63439938 22.9191364,3.01269531 C22.9191364,1.39099125 24.2452658,0.0762939063 25.8810718,0.0762939063 C27.5168776,0.0762939063 28.8430069,1.39099125 28.8430069,3.01269531 Z" id="Path"></path>
                </g>
                <path d="M20.4651197,35.3564453 C20.4651197,36.9787597 19.1383747,38.293457 17.5025687,38.293457 C16.3512866,38.293457 15.3526876,37.6409913 14.8644701,36.6894531 C15.1224313,36.7633056 15.3945524,36.8017578 15.6765243,36.8017578 C17.3110989,36.8017578 18.6378439,35.4870606 18.6378439,33.8647461 C18.6378439,33.3862305 18.5208688,32.9327392 18.3152386,32.5323486 C19.5570228,32.8814697 20.4651197,34.0142822 20.4651197,35.3564453 Z" id="Path" fill="#FFB509"></path>
                <path d="M31.9046791,35.3564453 C31.9046791,36.9787597 30.577934,38.293457 28.942128,38.293457 C27.7908458,38.293457 26.792247,37.6409913 26.3021823,36.6894531 C26.5601435,36.7633056 26.8322648,36.8017578 27.1148522,36.8017578 C28.7506582,36.8017578 30.0767875,35.4870606 30.0767875,33.8647461 C30.0767875,33.3862305 29.9616592,32.93396 29.7560292,32.5341797 C30.9965821,32.8826905 31.9046791,34.0142822 31.9046791,35.3564453 Z" id="Path" fill="#FFB509"></path>
                <path d="M43.3423913,35.3564453 C43.3423913,36.9787597 42.0174932,38.293457 40.3816874,38.293457 C39.2285582,38.293457 38.2299592,37.6409913 37.7398947,36.687622 C37.9978558,36.7633056 38.271824,36.8017578 38.5544116,36.8017578 C40.1902174,36.8017578 41.5163467,35.4870606 41.5163467,33.8647461 C41.5163467,33.3856202 41.3999872,32.9327392 41.1937416,32.5323486 C42.4342943,32.8814697 43.3423913,34.0142822 43.3423913,35.3564453 L43.3423913,35.3564453 Z" id="Path" fill="#FFB509"></path>
            </g>
        </g>
    </g>
</svg>