<?xml version="1.0" encoding="UTF-8" standalone="no"?>
<svg
   xmlns:dc="http://purl.org/dc/elements/1.1/"
   xmlns:cc="http://creativecommons.org/ns#"
   xmlns:rdf="http://www.w3.org/1999/02/22-rdf-syntax-ns#"
   xmlns:svg="http://www.w3.org/2000/svg"
   xmlns="http://www.w3.org/2000/svg"
   xmlns:sodipodi="http://sodipodi.sourceforge.net/DTD/sodipodi-0.dtd"
   xmlns:inkscape="http://www.inkscape.org/namespaces/inkscape"
   version="1.1"
   x="0px"
   y="0px"
   viewBox="0 0 83.070137 89.925636"
   enable-background="new 0 0 100 100"
   xml:space="preserve"
   id="svg8"
   sodipodi:docname="phone.svg"
   inkscape:version="0.92.4 (unknown)"
><metadata
     id="metadata14"><rdf:RDF><cc:Work
         rdf:about=""><dc:format>image/svg+xml</dc:format><dc:type
           rdf:resource="http://purl.org/dc/dcmitype/StillImage" /><dc:title></dc:title></cc:Work></rdf:RDF></metadata><defs
     id="defs12" /><sodipodi:namedview
     pagecolor="#ffffff"
     bordercolor="#666666"
     borderopacity="1"
     objecttolerance="10"
     gridtolerance="10"
     guidetolerance="10"
     inkscape:pageopacity="0"
     inkscape:pageshadow="2"
     inkscape:window-width="1920"
     inkscape:window-height="1025"
     id="namedview10"
     showgrid="false"
     inkscape:zoom="1.888"
     inkscape:cx="46.450453"
     inkscape:cy="27.178705"
     inkscape:window-x="0"
     inkscape:window-y="27"
     inkscape:window-maximized="1"
     inkscape:current-layer="svg8"
     fit-margin-top="0"
     fit-margin-left="0"
     fit-margin-right="0"
     fit-margin-bottom="0" /><path
     d="m 81.253843,70.050323 -0.5,-1 c -1.4,-3.3 -18.6,-8.3 -20,-8.4 l -1.1,0.1 c -2.1,0.4 -4.4,2.3 -8.9,6.2 -0.9,0.8 -2.1,1 -3.2,0.4 -5.9,-3.3 -13.1,-9.9 -16.7,-13.9 -3.9,-4.3 -8.6,-11.4 -10.8,-17.1 -0.4,-1.1 0,-2.3 0.8,-3.1 5.1,-4.6 7.3,-6.8 7.5,-9.2 0.1,-1.4 -2.9,-19.1000004 -6,-20.8000004 l -0.9,-0.6 c -2,-1.3 -5,-3.19999998 -8.3,-2.49999998 -0.8,0.2 -1.6,0.5 -2.3,0.89999998 -2.2000004,1.4 -7.7000004,5.2 -10.20000041,10.1000004 -1.5,3.1 -2.19999999,31.2 18.80000041,54.9 20.8,23.5 46.5,24.5 50.3,23.7 h 0.1 l 0.3,-0.1 c 5.2,-1.9 9.6,-6.8 11.3,-8.9 3.1,-3.7 1,-8.2 -0.2,-10.7 z"
     id="path2"
     inkscape:connector-curvature="0" /></svg>
