<?xml version="1.0" encoding="UTF-8"?>
<svg width="111px" height="90px" viewBox="0 0 111 90" version="1.1" xmlns="http://www.w3.org/2000/svg" xmlns:xlink="http://www.w3.org/1999/xlink">
    <!-- Generator: Sketch 55.2 (78181) - https://sketchapp.com -->
    <title>refresh</title>
    <desc>Created with Sketch.</desc>
    <g id="Router---July-2019-Revision-(YM)" stroke="none" stroke-width="1" fill="none" fill-rule="evenodd">
        <g id="Finance---Show-Private-Key" transform="translate(-254.000000, -735.000000)" fill="#80E0DC" fill-rule="nonzero">
            <g id="Group-3" transform="translate(243.000000, 662.000000)">
                <g id="refresh" transform="translate(11.000000, 73.000000)">
                    <path d="M30.2727093,45.0603563 L24.2326807,45.0603563 L24.2326807,45.0118384 C24.2326807,28.0798541 37.6575806,13.8330465 54.7783871,13.9130041 C63.1251275,13.9510422 70.7926972,17.3445809 76.2569157,22.8927042 L86.2238693,13.2158984 C78.1771828,5.04819449 67.0586089,0 54.7783871,0 C30.2383844,0 10.3457442,20.165996 10.3110336,45.0537579 L4.20196947,45.0537579 C0.457853637,45.0537579 -1.07288346,47.5728093 0.799174457,50.6573857 L13.8345444,63.6617459 C16.4200978,66.26386 17.9751323,66.3438175 20.6401344,63.6617459 L33.6755043,50.6573857 C35.5475623,47.5759144 34.0133541,45.0603563 30.2727093,45.0603563 Z M109.522776,39.6476951 L96.4874056,26.6708931 C93.8293456,23.9958081 92.1848349,24.155335 89.6852866,26.6708931 L76.6499167,39.6476951 C74.7778588,42.725285 76.3051248,45.2443363 80.0492407,45.2443363 L86.0792418,45.2443363 C85.9828235,62.0653116 72.6026617,76.1871369 55.5404775,76.1071794 C47.1972082,76.0726346 39.5331095,72.6860825 34.0619489,67.1414524 L24.0949953,76.8046732 C32.1451529,84.958404 43.2637268,90 55.5404775,90 C80.0045026,90 99.8423772,69.9799459 100.000889,45.2478296 L106.120366,45.2478296 C109.867567,45.2443363 111.394833,42.7217917 109.522776,39.6476951 Z" id="Shape"></path>
                </g>
            </g>
        </g>
    </g>
</svg>