<?xml version="1.0" encoding="UTF-8"?>
<svg width="256px" height="256px" viewBox="0 0 256 256" version="1.1" xmlns="http://www.w3.org/2000/svg" xmlns:xlink="http://www.w3.org/1999/xlink">
    <!-- Generator: Sketch 43.2 (39069) - http://www.bohemiancoding.com/sketch -->
    <title>256 copy</title>
    <desc>Created with Sketch.</desc>
    <defs></defs>
    <g id="Page-1" stroke="none" stroke-width="1" fill="none" fill-rule="evenodd">
        <g id="256-copy">
            <path d="M7,151 L236,151 L236,212 L7,212 L7,151 Z M199,190 C203.418278,190 207,186.418278 207,182 C207,177.581722 203.418278,174 199,174 C194.581722,174 191,177.581722 191,182 C191,186.418278 194.581722,190 199,190 Z M171,190 C175.418278,190 179,186.418278 179,182 C179,177.581722 175.418278,174 171,174 C166.581722,174 163,177.581722 163,182 C163,186.418278 166.581722,190 171,190 Z M143,190 C147.418278,190 151,186.418278 151,182 C151,177.581722 147.418278,174 143,174 C138.581722,174 135,177.581722 135,182 C135,186.418278 138.581722,190 143,190 Z" id="Combined-Shape" fill="#D8D8D8"></path>
            <path d="M14,163 L243,163 L243,224 L14,224 L14,163 Z M206,202 C210.418278,202 214,198.418278 214,194 C214,189.581722 210.418278,186 206,186 C201.581722,186 198,189.581722 198,194 C198,198.418278 201.581722,202 206,202 Z M178,202 C182.418278,202 186,198.418278 186,194 C186,189.581722 182.418278,186 178,186 C173.581722,186 170,189.581722 170,194 C170,198.418278 173.581722,202 178,202 Z M150,202 C154.418278,202 158,198.418278 158,194 C158,189.581722 154.418278,186 150,186 C145.581722,186 142,189.581722 142,194 C142,198.418278 145.581722,202 150,202 Z" id="Combined-Shape" fill="#979797"></path>
            <polygon id="Rectangle-3" fill="#979797" points="199.837646 96 212.162354 96 214 157 198 157"></polygon>
            <path d="M239.714616,55.3012187 L226.389264,68.6265713 C195.248494,37.4858017 144.699059,37.4858017 113.558289,68.6265713 L100.232936,55.3012187 C138.760586,16.9184097 201.331807,16.9184097 239.714616,55.3012187 Z M169.98874,80.2529288 C181.865685,80.2529288 193.018426,84.8878341 201.564032,93.2885998 L214.889385,79.9632473 C190.12161,55.3403132 149.855871,55.3403132 125.232936,80.1080881 L138.558289,93.4334406 C146.959055,84.8878341 158.111796,80.2529288 169.98874,80.2529288 Z" id="Shape" fill="#D8D8D8" fill-rule="nonzero" transform="translate(169.973776, 59.973776) rotate(-45.000000) translate(-169.973776, -59.973776) "></path>
        </g>
    </g>
</svg>