<?xml version="1.0" encoding="UTF-8"?>
<svg width="80px" height="80px" viewBox="0 0 80 80" version="1.1" xmlns="http://www.w3.org/2000/svg" xmlns:xlink="http://www.w3.org/1999/xlink">
    <!-- Generator: Sketch 55.2 (78181) - https://sketchapp.com -->
    <title>shopping-bag</title>
    <desc>Created with Sketch.</desc>
    <g id="Router---July-2019-Revision-(YM)" stroke="none" stroke-width="1" fill="none" fill-rule="evenodd">
        <g id="Selling-Bandwidth" transform="translate(-859.000000, -297.000000)" fill-rule="nonzero">
            <g id="shopping-bag" transform="translate(859.000000, 297.000000)">
                <polygon id="Path" fill="#9BC9FF" points="70.6666667 16.88 72.5466667 11.2133333 78.2133333 9.33333333 72.5466667 7.45333333 70.6666667 1.78666667 68.7866667 7.45333333 63.12 9.33333333 68.7866667 11.2133333"></polygon>
                <path d="M45.8266667,47.7733333 C47.5461932,47.4653552 49.2656318,48.3142604 50.0666667,49.8666667 C50.2571655,50.2264852 50.3920303,50.6130976 50.4666667,51.0133333 C50.5080579,51.2466855 50.530354,51.483024 50.5333333,51.72 C50.5259765,53.662383 49.1269014,55.3199218 47.2133333,55.6533333 L33.3333333,58.6666667 L56.2533333,58.6666667 C56.6207889,58.666168 56.9840937,58.5889657 57.32,58.44 L54.8266667,18.5066667 C54.7419205,17.0967363 53.5724727,15.9974554 52.16,15.9999956 L27.8133333,15.9999956 C26.4167883,15.9999956 25.2552714,17.074351 25.1466667,18.4666667 L22.84,52.08 C23.162393,51.9481907 23.4974901,51.8498955 23.84,51.7866667 L45.8266667,47.7733333 Z M40,21.3332801 L40.0666667,21.3332801 C45.957704,21.3517428 50.7184095,26.142296 50.7000532,32.0333333 C50.6815905,37.9243707 45.8910373,42.6850762 40,42.6667199 L39.9333333,42.6667199 C34.042296,42.6482572 29.2815905,37.857704 29.2999468,31.9666667 C29.3184095,26.0756293 34.1089627,21.3149238 40,21.3332801 L40,21.3332801 Z" id="Shape" fill="#9BC9FF"></path>
                <polygon id="Path" fill="#9BC9FF" points="9.33333333 24.88 11.2133333 19.2133333 16.88 17.3333333 11.2133333 15.4533333 9.33333333 9.78666667 7.45333333 15.4533333 1.78666667 17.3333333 7.45333333 19.2133333"></polygon>
                <polygon id="Path" fill="#9BC9FF" points="12 78.6666667 12 73.3333333 12 58.6666667 12 52 6.66666667 52 1.33333333 52 1.33333333 78.6666667 6.66666667 78.6666667"></polygon>
                <g id="Group" fill="#57A4FF">
                    <path d="M79.8893333,47.0053333 C79.7008027,45.8219258 78.9865369,44.7875394 77.9466667,44.192 L77.6,43.992 C74.9071677,42.4432142 71.5021802,42.9542662 69.3826667,45.2253333 L58.4853333,55.7053333 L56.1573333,18.4173333 C56.0152454,16.3109554 54.2684884,14.6730796 52.1573333,14.6666667 L49.3333333,14.6666667 L49.3333333,9.33333333 C49.3333333,4.17867567 45.1546577,-2.44249065e-15 40,-2.44249065e-15 C34.8453423,-2.44249065e-15 30.6666667,4.17867567 30.6666667,9.33333333 L30.6666667,14.6666667 L27.8133333,14.6666667 C25.7184736,14.6753019 23.9796857,16.2877378 23.8133333,18.376 L21.56,51.2453333 C21.3658417,51.3394618 21.1766985,51.4436018 20.9933333,51.5573333 L13.3333333,56.2786667 L13.3333333,52 C13.3333333,51.2636203 12.7363797,50.6666667 12,50.6666667 L1.33333333,50.6666667 C0.596953667,50.6666667 -3.55271368e-15,51.2636203 -3.55271368e-15,52 L-3.55271368e-15,78.6666667 C-3.55271368e-15,79.4030463 0.596953667,80 1.33333333,80 L12,80 C12.7363797,80 13.3333333,79.4030463 13.3333333,78.6666667 L13.3333333,74.6666667 L21.76,74.6666667 C21.819758,74.6666992 21.8794498,74.66269 21.9386667,74.6546667 L57.6,69.8413333 C60.4395605,69.4675484 63.049499,68.0835331 64.952,65.9426667 L78.9133333,50.3293333 C79.7249264,49.4261242 80.0837868,48.20394 79.8893333,47.0053333 L79.8893333,47.0053333 Z M33.3333333,9.33333333 C33.3333333,5.651435 36.3181017,2.66666667 40,2.66666667 C43.6818983,2.66666667 46.6666667,5.651435 46.6666667,9.33333333 L46.6666667,14.6666667 L33.3333333,14.6666667 L33.3333333,9.33333333 Z M26.476,18.5693333 C26.5333025,17.8742148 27.1118717,17.3378812 27.8093333,17.3333314 L52.16,17.3333314 C52.8672067,17.3321429 53.4523163,17.8833161 53.4933333,18.5893333 L55.9146667,57.3333314 L45.756,57.3333314 L47.448,56.9666667 C49.9993693,56.5225292 51.8629522,54.3097354 51.8666667,51.72 C51.8633056,51.3984713 51.832977,51.0777913 51.776,50.7613333 C51.2323663,47.8789183 48.4776144,45.9650719 45.5866667,46.4613333 L24.296,50.348 L26.476,18.5693333 Z M2.66666667,53.3333333 L5.33333333,53.3333333 L5.33333333,77.3333333 L2.66666667,77.3333333 L2.66666667,53.3333333 Z M10.6666667,77.3333333 L8,77.3333333 L8,53.3333333 L10.6666667,53.3333333 L10.6666667,77.3333333 Z M76.9333333,48.552 L62.9626667,64.168 C61.4847258,65.8327419 59.4563869,66.9091579 57.2493333,67.2 L21.6706667,72 L13.3333333,72 L13.3333333,59.4106667 L22.4626667,53.7813333 C22.9461669,53.4396768 23.497924,53.2067835 24.08,53.0986667 L46.0653333,49.0853333 C47.2160614,48.8868421 48.3620816,49.4601224 48.8933333,50.5 C49.0148908,50.7303795 49.1016118,50.977512 49.1506667,51.2333333 C49.1804799,51.3939209 49.1969805,51.5566963 49.2,51.72 C49.188218,53.032747 48.229914,54.1449434 46.9333333,54.3506667 L33.0533333,57.364 C32.3887523,57.5090341 31.9398963,58.1310927 32.0117464,58.80751 C32.0835965,59.4839273 32.6531142,59.9978127 33.3333333,60 L56.2533333,60 C57.2898101,60.0048173 58.2868905,59.6032089 59.0306667,58.8813333 L71.2973333,47.0826667 C72.5680051,45.6925595 74.6321254,45.3681028 76.268,46.3013333 L76.6186667,46.5026667 C76.9633671,46.6994321 77.1987655,47.0434381 77.2573333,47.436 C77.3224779,47.8377844 77.2035089,48.2475666 76.9333333,48.552 L76.9333333,48.552 Z" id="Shape"></path>
                    <path d="M62.7013333,10.5986667 L67.7333333,12.2733333 L69.4093333,17.2973333 C69.5891781,17.8444994 70.1000357,18.2143335 70.676,18.2143335 C71.2519643,18.2143335 71.7628219,17.8444994 71.9426667,17.2973333 L73.6186667,12.2733333 L78.644,10.5986667 C79.191166,10.4188219 79.5610001,9.90796426 79.5610001,9.332 C79.5610001,8.75603574 79.191166,8.24517812 78.644,8.06533333 L73.6066667,6.4 L71.9306667,1.36933333 C71.7508219,0.822167285 71.2399643,0.4523332 70.664,0.4523332 C70.0880357,0.4523332 69.5771781,0.822167285 69.3973333,1.36933333 L67.7333333,6.4 L62.7013333,8.068 C62.1541673,8.24784478 61.7843332,8.75870241 61.7843332,9.33466667 C61.7843332,9.91063093 62.1541673,10.4214886 62.7013333,10.6013333 L62.7013333,10.5986667 Z M69.2,8.71333333 C69.5980711,8.58030886 69.9102717,8.26761424 70.0426667,7.86933333 L70.6666667,6.008 L71.288,7.87466667 C71.4203949,8.27294757 71.7325956,8.58564219 72.1306667,8.71866667 L73.9973333,9.33866667 L72.1306667,9.95866667 C71.7325956,10.0916911 71.4203949,10.4043858 71.288,10.8026667 L70.6666667,12.6586667 L70.0453333,10.792 C69.9129384,10.3937191 69.6007378,10.0810245 69.2026667,9.948 L67.3413333,9.33333333 L69.2,8.71333333 Z" id="Shape"></path>
                    <path d="M1.368,18.5986667 L6.4,20.2666667 L8.076,25.2906667 C8.25584478,25.8378327 8.76670241,26.2076668 9.34266667,26.2076668 C9.91863093,26.2076668 10.4294886,25.8378327 10.6093333,25.2906667 L12.2733333,20.2666667 L17.2986667,18.592 C17.8458327,18.4121552 18.2156668,17.9012976 18.2156668,17.3253333 C18.2156668,16.7493691 17.8458327,16.2385114 17.2986667,16.0586667 L12.2733333,14.4 L10.5973333,9.36933333 C10.4174886,8.82216728 9.90663093,8.4523332 9.33066667,8.4523332 C8.75470241,8.4523332 8.24384478,8.82216728 8.064,9.36933333 L6.4,14.4 L1.368,16.068 C0.820833952,16.2478448 0.450999867,16.7587024 0.450999867,17.3346667 C0.450999867,17.9106309 0.820833952,18.4214886 1.368,18.6013333 L1.368,18.5986667 Z M7.86666667,16.7133333 C8.26473775,16.5803089 8.57693839,16.2676142 8.70933333,15.8693333 L9.33333333,14.008 L9.95466667,15.8746667 C10.0870616,16.2729476 10.3992622,16.5856422 10.7973333,16.7186667 L12.664,17.3386667 L10.7973333,17.9586667 C10.3992622,18.0916911 10.0870616,18.4043858 9.95466667,18.8026667 L9.33333333,20.6586667 L8.712,18.792 C8.57960505,18.3937191 8.26740442,18.0810245 7.86933333,17.948 L6.008,17.3333333 L7.86666667,16.7133333 Z" id="Shape"></path>
                    <path d="M40,44 C46.627417,44 52,38.627417 52,32 C52,25.372583 46.627417,20 40,20 C33.372583,20 28,25.372583 28,32 C28.0073482,38.6243709 33.3756291,43.9926518 40,44 Z M40,22.6666667 C45.1546577,22.6666667 49.3333333,26.8453423 49.3333333,32 C49.3333333,37.1546577 45.1546577,41.3333333 40,41.3333333 C34.8453423,41.3333333 30.6666667,37.1546577 30.6666667,32 C30.6725448,26.8477791 34.8477791,22.6725448 40,22.6666667 L40,22.6666667 Z" id="Shape"></path>
                    <path d="M40,36 C39.2636203,36 38.6666667,35.4030463 38.6666667,34.6666667 L36,34.6666667 C36.0070019,36.3557139 37.0741988,37.8583273 38.6666667,38.4213333 L38.6666667,40 L41.3333333,40 L41.3333333,38.4213333 C43.16873,37.7748636 44.2702583,35.8988745 43.9405164,33.981096 C43.6107746,32.0633175 41.9459163,30.6629795 40,30.6666667 C39.2636203,30.6666667 38.6666667,30.069713 38.6666667,29.3333333 C38.6666667,28.5969537 39.2636203,28 40,28 C40.7363797,28 41.3333333,28.5969537 41.3333333,29.3333333 L44,29.3333333 C43.9929981,27.6442861 42.9258012,26.1416727 41.3333333,25.5786667 L41.3333333,24 L38.6666667,24 L38.6666667,25.5786667 C36.83127,26.2251364 35.7297417,28.1011255 36.0594836,30.018904 C36.3892254,31.9366825 38.0540837,33.3370205 40,33.3333333 C40.7363797,33.3333333 41.3333333,33.930287 41.3333333,34.6666667 C41.3333333,35.4030463 40.7363797,36 40,36 L40,36 Z" id="Path"></path>
                </g>
            </g>
        </g>
    </g>
</svg>